<svg width="807" height="807" viewBox="0 0 807 807" fill="none" xmlns="http://www.w3.org/2000/svg">
<path d="M207.593 807H0V639.515C4.5192 639.515 9.0384 639.515 13.5092 639.386C37.7192 638.676 61.9292 635.706 86.1392 636.158C111.632 636.565 136.915 640.837 161.126 648.828C194.083 659.787 240.889 679.978 248.411 718.488C252.43 739.051 242.439 757.644 230.867 773.848C223.039 784.904 214.936 795.702 207.593 807ZM807 0H487.557C476.259 33.1516 480.988 73.2756 506.731 98.3572C523.872 115.046 547.469 121.566 570.226 126.408C597.89 132.3 625.312 138.707 652.363 147.003C695.586 160.27 749.203 176.055 772.234 218.939C782.499 238.049 786.534 260.225 800.705 277.204C802.63 279.494 804.735 281.626 807 283.58V0ZM463.928 650.636C451.296 650.632 438.947 654.375 428.442 661.391C417.937 668.407 409.749 678.38 404.912 690.05C400.076 701.72 398.809 714.562 401.271 726.951C403.734 739.341 409.815 750.723 418.746 759.656C427.677 768.589 439.057 774.674 451.446 777.139C463.836 779.605 476.678 778.341 488.349 773.508C500.02 768.674 509.995 760.488 517.014 749.985C524.032 739.482 527.778 727.134 527.778 714.502C527.774 697.567 521.046 681.328 509.073 669.352C497.1 657.376 480.862 650.644 463.928 650.636ZM655.284 320.169C648.806 320.166 642.472 322.084 637.084 325.681C631.696 329.279 627.496 334.393 625.016 340.378C622.535 346.362 621.885 352.948 623.148 359.302C624.411 365.656 627.531 371.493 632.111 376.074C636.692 380.654 642.529 383.774 648.883 385.037C655.237 386.3 661.823 385.65 667.807 383.169C673.792 380.689 678.906 376.489 682.504 371.101C686.101 365.713 688.019 359.379 688.016 352.901C688.016 344.22 684.567 335.895 678.429 329.756C672.291 323.618 663.965 320.169 655.284 320.169ZM202.186 26.9699C185.199 26.9699 168.595 32.0072 154.471 41.4446C140.348 50.882 129.34 64.2958 122.841 79.9894C116.341 95.683 114.641 112.952 117.956 129.611C121.271 146.271 129.452 161.574 141.464 173.584C153.477 185.594 168.781 193.772 185.441 197.084C202.101 200.396 219.37 198.692 235.062 192.19C250.755 185.687 264.166 174.677 273.601 160.552C283.036 146.427 288.07 129.821 288.067 112.835C288.067 101.557 285.845 90.3906 281.529 79.972C277.213 69.5533 270.887 60.0869 262.912 52.1134C254.937 44.14 245.469 37.8155 235.05 33.5014C224.63 29.1872 213.463 26.9678 202.186 26.9699Z" fill="url(#paint0_linear_2_9)"/>
<defs>
<linearGradient id="paint0_linear_2_9" x1="-55.7476" y1="713.243" x2="966.383" y2="-111.463" gradientUnits="userSpaceOnUse">
<stop stop-color="#FAE1D0"/>
<stop offset="0.02" stop-color="#FADFD0"/>
<stop offset="0.31" stop-color="#FEBBD5"/>
<stop offset="0.46" stop-color="#FFADD7"/>
<stop offset="1" stop-color="#9BB7FB"/>
</linearGradient>
</defs>
</svg>
