<svg width="39" height="39" viewBox="0 0 39 39" fill="none" xmlns="http://www.w3.org/2000/svg">
<path d="M36.5855 19.754C36.5934 23.159 35.5904 26.4897 33.7035 29.3241C31.8167 32.1586 29.1311 34.3691 25.9867 35.6758C22.8424 36.9825 19.381 37.3264 16.0411 36.6641C12.7011 36.0017 9.63292 34.3629 7.22521 31.9552C4.81751 29.5475 3.17866 26.4792 2.5163 23.1393C1.85394 19.7993 2.19786 16.3379 3.50452 13.1936C4.81119 10.0493 7.0218 7.36358 9.85623 5.47677C12.6907 3.58995 16.0214 2.58698 19.4264 2.59483C23.9773 2.59483 28.3418 4.40264 31.5598 7.62061C34.7777 10.8386 36.5855 15.2031 36.5855 19.754Z" stroke="url(#paint0_linear_2_105)" stroke-width="3.97204" stroke-miterlimit="10"/>
<defs>
<linearGradient id="paint0_linear_2_105" x1="6767.9" y1="7292.18" x2="7099.84" y2="7292.18" gradientUnits="userSpaceOnUse">
<stop stop-color="#FAE1D0"/>
<stop offset="0.5" stop-color="#FFADD7"/>
<stop offset="1" stop-color="#9BB7FB"/>
</linearGradient>
</defs>
</svg>
