<svg width="20" height="20" viewBox="0 0 20 20" fill="none" xmlns="http://www.w3.org/2000/svg">
<path d="M9.97426 12.1673L3.02319 6.24897C2.96732 6.18996 2.93616 6.11175 2.93616 6.03048C2.93616 5.94921 2.96732 5.87106 3.02319 5.81205C3.04921 5.779 3.08238 5.75229 3.12023 5.73392C3.15807 5.71555 3.19956 5.70598 3.24162 5.70598C3.28369 5.70598 3.32518 5.71555 3.36302 5.73392C3.40086 5.75229 3.43404 5.779 3.46006 5.81205L9.97426 11.3729L16.4486 5.81205C16.4785 5.77824 16.5151 5.75114 16.5562 5.73259C16.5973 5.71404 16.6419 5.70447 16.6869 5.70447C16.732 5.70447 16.7766 5.71404 16.8177 5.73259C16.8588 5.75114 16.8955 5.77824 16.9253 5.81205C16.9812 5.87106 17.0123 5.94921 17.0123 6.03048C17.0123 6.11175 16.9812 6.18996 16.9253 6.24897L9.97426 12.1673Z" fill="#45484C"/>
<path d="M17.8786 16.1792H1.99045C1.60384 16.1691 1.23587 16.0111 0.962406 15.7376C0.68894 15.4641 0.53086 15.0962 0.520813 14.7096V4.81916C0.531164 4.43631 0.690573 4.07262 0.965073 3.80554C1.23957 3.53846 1.60746 3.38908 1.99045 3.38922H17.8786C18.2578 3.38922 18.6216 3.53986 18.8897 3.80803C19.1579 4.07619 19.3085 4.43992 19.3085 4.81916V14.7096C19.3087 15.0925 19.1593 15.4604 18.8922 15.7349C18.6251 16.0094 18.2614 16.1688 17.8786 16.1792ZM1.99045 4.02476C1.77976 4.02476 1.57771 4.10846 1.42873 4.25744C1.27975 4.40642 1.19605 4.60847 1.19605 4.81916V14.7096C1.19605 14.9202 1.27975 15.1223 1.42873 15.2713C1.57771 15.4203 1.77976 15.5039 1.99045 15.5039H17.8786C18.0893 15.5039 18.2913 15.4203 18.4403 15.2713C18.5893 15.1223 18.673 14.9202 18.673 14.7096V4.81916C18.673 4.60847 18.5893 4.40642 18.4403 4.25744C18.2913 4.10846 18.0893 4.02476 17.8786 4.02476H1.99045Z" fill="#45484C"/>
</svg>
