<svg width="101" height="100" viewBox="0 0 101 100" fill="none" xmlns="http://www.w3.org/2000/svg">
<path d="M50.2072 0C33.8562 0 20.4562 13.36 20.4562 29.666C20.4562 35.984 22.4742 41.856 25.8892 46.682L46.5762 82.445C49.4732 86.23 51.3992 85.511 53.8082 82.245L76.6262 43.415C77.0862 42.581 77.4482 41.693 77.7632 40.786C79.2112 37.2575 79.9558 33.4801 79.9552 29.666C79.9562 13.36 66.5602 0 50.2072 0ZM50.2072 13.9C59.0132 13.9 66.0152 20.886 66.0152 29.666C66.0152 38.446 59.0132 45.429 50.2072 45.429C41.4022 45.429 34.3972 38.447 34.3972 29.666C34.3972 20.886 41.4022 13.901 50.2072 13.901V13.9Z" fill="#00B000"/>
<path d="M69.1192 48.908L69.0712 49.034C69.0862 48.996 69.0982 48.957 69.1132 48.919L69.1192 48.908V48.908Z" fill="#00B000"/>
<path d="M34.2122 69.057C20.0862 71.053 10.2062 75.828 10.2062 82.857C10.2062 92.325 26.7142 100 50.2062 100C73.6982 100 90.2062 92.325 90.2062 82.857C90.2062 75.828 80.3272 71.053 66.2022 69.057L64.2452 72.389C74.8912 73.866 82.2062 76.97 82.2062 80.572C82.2062 85.622 67.8792 89.715 50.2062 89.715C32.5332 89.715 18.2062 85.622 18.2062 80.572C18.2052 76.982 25.4722 73.881 36.1512 72.398C35.5062 71.284 34.8572 70.172 34.2112 69.057H34.2122Z" fill="#00B000"/>
</svg>
