<svg width="22" height="22" viewBox="0 0 22 22" fill="none" xmlns="http://www.w3.org/2000/svg">
<path d="M11.4479 21.2703C9.3739 21.2703 7.3465 20.6553 5.62206 19.5031C3.89762 18.3508 2.55364 16.7131 1.75997 14.797C0.966295 12.8809 0.758606 10.7725 1.16322 8.73833C1.56783 6.70421 2.56651 4.83579 4.03303 3.36927C5.49955 1.90275 7.36809 0.904011 9.40221 0.499399C11.4363 0.0947877 13.5447 0.302476 15.4608 1.09615C17.3769 1.88982 19.0146 3.23386 20.1669 4.9583C21.3191 6.68275 21.9341 8.71014 21.9341 10.7841C21.9341 13.5652 20.8293 16.2324 18.8627 18.199C16.8962 20.1655 14.229 21.2703 11.4479 21.2703ZM11.4479 0.933477C9.49959 0.933477 7.5951 1.5112 5.97517 2.5936C4.35524 3.67601 3.09272 5.21448 2.34714 7.01445C1.60157 8.81442 1.40643 10.795 1.78652 12.7059C2.1666 14.6167 3.10486 16.3719 4.4825 17.7495C5.86014 19.1272 7.61526 20.0654 9.5261 20.4455C11.4369 20.8256 13.4176 20.6305 15.2176 19.8849C17.0176 19.1393 18.556 17.8767 19.6384 16.2568C20.7208 14.6369 21.2986 12.7324 21.2986 10.7841C21.2881 8.17844 20.2456 5.68309 18.3994 3.84432C16.5532 2.00555 14.0536 0.973154 11.4479 0.973176V0.933477Z" fill="#45484C"/>
<path d="M11.4478 21.2703C8.15104 21.2703 5.45013 16.5833 5.45013 10.7841C5.45013 4.98491 8.15104 0.297913 11.4478 0.297913C14.7446 0.297913 17.4456 4.98491 17.4456 10.7841C17.4456 16.5833 14.7843 21.2703 11.4478 21.2703ZM11.4478 0.933453C8.50852 0.933453 6.08567 5.3424 6.08567 10.7841C6.08567 16.2258 8.50852 20.8333 11.4478 20.8333C14.3871 20.8333 16.8101 16.4244 16.8101 10.9827C16.8101 5.54101 14.4269 0.973152 11.4478 0.973152V0.933453Z" fill="#45484C"/>
<path d="M21.6162 11.102H1.27944C1.19812 11.0934 1.12223 11.0571 1.0644 10.9993C1.00658 10.9415 0.970361 10.8656 0.961731 10.7843C0.961731 10.7 0.995233 10.6192 1.05483 10.5596C1.11442 10.5 1.19516 10.4665 1.27944 10.4665H21.6162C21.6595 10.4597 21.7038 10.4632 21.7455 10.4768C21.7871 10.4904 21.825 10.5136 21.856 10.5446C21.887 10.5755 21.9102 10.6134 21.9238 10.655C21.9373 10.6967 21.9409 10.741 21.9341 10.7843C21.9341 10.8685 21.9006 10.9493 21.841 11.0089C21.7814 11.0685 21.7005 11.102 21.6162 11.102Z" fill="#45484C"/>
<path d="M20.1467 5.8194H2.78889C2.7436 5.81976 2.69876 5.8104 2.65737 5.79201C2.61598 5.77362 2.57897 5.74659 2.54888 5.71273C2.51879 5.67888 2.49635 5.63902 2.48294 5.59576C2.46953 5.5525 2.46552 5.50687 2.47118 5.46194C2.47118 5.37766 2.50456 5.29679 2.56416 5.2372C2.62375 5.17761 2.70462 5.14417 2.78889 5.14417H20.1467C20.228 5.15279 20.3039 5.18901 20.3617 5.24684C20.4195 5.30466 20.4559 5.38061 20.4645 5.46194C20.4651 5.55025 20.4329 5.63563 20.3742 5.70164C20.3155 5.76765 20.2344 5.80959 20.1467 5.8194Z" fill="#45484C"/>
<path d="M20.1467 16.4244H2.78889C2.7436 16.4248 2.69876 16.4154 2.65737 16.3971C2.61598 16.3787 2.57897 16.3517 2.54888 16.3178C2.51879 16.284 2.49635 16.2441 2.48294 16.2008C2.46953 16.1575 2.46552 16.1119 2.47118 16.067C2.47118 16.0252 2.47934 15.9839 2.4953 15.9453C2.51127 15.9068 2.53465 15.8718 2.56416 15.8423C2.59366 15.8128 2.62876 15.7894 2.66731 15.7734C2.70586 15.7574 2.74716 15.7492 2.78889 15.7492H20.1467C20.228 15.7578 20.3039 15.7941 20.3617 15.8519C20.4195 15.9098 20.4559 15.9857 20.4645 16.067C20.4651 16.1553 20.4329 16.2407 20.3742 16.3067C20.3155 16.3727 20.2344 16.4146 20.1467 16.4244Z" fill="#45484C"/>
</svg>
