<svg width="116" height="140" viewBox="0 0 116 140" fill="none" xmlns="http://www.w3.org/2000/svg">
<path d="M36.604 69.5477C36.6119 72.9527 35.6089 76.2834 33.722 79.1178C31.8352 81.9522 29.1496 84.1628 26.0052 85.4694C22.8609 86.7761 19.3995 87.1201 16.0596 86.4577C12.7196 85.7953 9.65141 84.1565 7.24371 81.7488C4.83601 79.3411 3.19715 76.2729 2.53479 72.9329C1.87244 69.593 2.21635 66.1316 3.52301 62.9873C4.82968 59.843 7.0403 57.1572 9.87472 55.2704C12.7091 53.3836 16.0399 52.3806 19.4449 52.3885C23.9925 52.399 28.3509 54.2102 31.5666 57.4259C34.7823 60.6416 36.5935 65 36.604 69.5477Z" fill="white"/>
<path d="M36.604 69.5477C36.6119 72.9527 35.6089 76.2834 33.722 79.1178C31.8352 81.9522 29.1496 84.1628 26.0052 85.4694C22.8609 86.7761 19.3995 87.1201 16.0596 86.4577C12.7196 85.7954 9.65141 84.1565 7.24371 81.7488C4.83601 79.3411 3.19715 76.2729 2.53479 72.9329C1.87244 69.593 2.21635 66.1316 3.52301 62.9873C4.82968 59.843 7.0403 57.1572 9.87472 55.2704C12.7091 53.3836 16.0399 52.3806 19.4449 52.3885C23.9925 52.399 28.3509 54.2102 31.5666 57.4259C34.7823 60.6416 36.5935 65 36.604 69.5477V69.5477Z" stroke="url(#paint0_linear_122_4)" stroke-width="3.97204" stroke-miterlimit="10"/>
<rect x="113" width="3" height="140" fill="url(#paint1_linear_122_4)"/>
<defs>
<linearGradient id="paint0_linear_122_4" x1="6767.92" y1="13402.2" x2="7099.86" y2="13402.2" gradientUnits="userSpaceOnUse">
<stop stop-color="#FAE1D0"/>
<stop offset="0.5" stop-color="#FFADD7"/>
<stop offset="1" stop-color="#9BB7FB"/>
</linearGradient>
<linearGradient id="paint1_linear_122_4" x1="114.5" y1="0" x2="114.5" y2="140" gradientUnits="userSpaceOnUse">
<stop stop-color="#F1C3D3"/>
<stop offset="0.5" stop-color="#FBD1DB"/>
<stop offset="1" stop-color="#F9DED5"/>
</linearGradient>
</defs>
</svg>
