<svg width="20" height="20" viewBox="0 0 20 20" fill="none" xmlns="http://www.w3.org/2000/svg">
<path d="M14.9494 10.698C14.9438 10.743 14.9478 10.7886 14.9612 10.8319C14.9746 10.8751 14.9971 10.915 15.0272 10.9489C15.0573 10.9828 15.0943 11.0098 15.1357 11.0282C15.1771 11.0466 15.2219 11.0559 15.2672 11.0555C15.355 11.0457 15.436 11.0038 15.4947 10.9377C15.5534 10.8717 15.5855 10.7864 15.585 10.698C15.5745 8.96674 14.8793 7.30994 13.6514 6.08943C12.4234 4.86892 10.7625 4.18387 9.03115 4.1839C8.98788 4.17712 8.94359 4.18064 8.90194 4.19421C8.86028 4.20777 8.82242 4.23099 8.79145 4.26197C8.76047 4.29294 8.73725 4.3308 8.72369 4.37246C8.71012 4.41411 8.7066 4.4584 8.71338 4.50167C8.71338 4.5434 8.7216 4.5847 8.73757 4.62325C8.75353 4.66181 8.77691 4.69684 8.80642 4.72635C8.83592 4.75586 8.87096 4.77929 8.90951 4.79526C8.94806 4.81123 8.98942 4.81944 9.03115 4.81944C10.5939 4.81941 12.0933 5.43746 13.202 6.53878C14.3108 7.64011 14.939 9.13529 14.9494 10.698Z" fill="#45484C"/>
<path d="M9.03115 0.489685C8.94688 0.489685 8.86601 0.523127 8.80642 0.582719C8.74682 0.642311 8.71338 0.723179 8.71338 0.807455C8.7066 0.850733 8.71012 0.89496 8.72369 0.936612C8.73725 0.978264 8.76047 1.01613 8.79145 1.0471C8.82242 1.07808 8.86028 1.10129 8.90194 1.11486C8.94359 1.12843 8.98788 1.13195 9.03115 1.12516C11.57 1.12516 14.0048 2.13376 15.8 3.92897C17.5952 5.72419 18.6037 8.15897 18.6037 10.6978C18.6032 10.7861 18.6353 10.8715 18.694 10.9375C18.7527 11.0035 18.8337 11.0454 18.9215 11.0553C18.9668 11.0556 19.0116 11.0463 19.053 11.0279C19.0944 11.0095 19.1314 10.9825 19.1615 10.9486C19.1916 10.9148 19.2141 10.8749 19.2275 10.8316C19.2409 10.7883 19.2449 10.7427 19.2393 10.6978C19.2288 7.99364 18.1499 5.40327 16.2378 3.49114C14.3257 1.579 11.7353 0.500146 9.03115 0.489685Z" fill="#45484C"/>
<path d="M13.8373 12.6839C13.697 12.5422 13.5299 12.4297 13.3459 12.3529C13.1618 12.2762 12.9643 12.2367 12.7649 12.2367C12.5654 12.2367 12.368 12.2762 12.1839 12.3529C11.9998 12.4297 11.8328 12.5422 11.6925 12.6839L10.8583 13.5181C10.8024 13.5771 10.7713 13.6552 10.7713 13.7365C10.7713 13.8178 10.8024 13.896 10.8583 13.955C10.9239 14.0136 11.0087 14.046 11.0966 14.046C11.1846 14.046 11.2694 14.0136 11.3349 13.955L12.1294 13.1606C12.2111 13.0741 12.3096 13.0051 12.4189 12.9579C12.5281 12.9108 12.6459 12.8865 12.7649 12.8865C12.8839 12.8865 13.0017 12.9108 13.1109 12.9579C13.2202 13.0051 13.3187 13.0741 13.4004 13.1606L15.3467 15.1069C15.5534 15.3277 15.6683 15.6187 15.6683 15.9211C15.6683 16.2235 15.5534 16.5146 15.3467 16.7354L14.0757 18.0064C13.8556 18.2125 13.5775 18.3459 13.2791 18.3885C12.9807 18.4311 12.6764 18.381 12.4074 18.2448C7.79171 15.7481 3.99785 11.968 1.4843 7.36141C1.34224 7.09394 1.2888 6.78829 1.33163 6.48847C1.37446 6.18865 1.51134 5.91016 1.72262 5.69316L3.0334 4.38238C3.13695 4.2767 3.26058 4.19272 3.39699 4.1354C3.53339 4.07809 3.67983 4.04855 3.82779 4.04855C3.97575 4.04855 4.12225 4.07809 4.25866 4.1354C4.39507 4.19272 4.51869 4.2767 4.62225 4.38238L6.60827 6.3684C6.76178 6.5367 6.84688 6.75627 6.84688 6.98406C6.84688 7.21186 6.76178 7.43143 6.60827 7.59972L5.77411 8.43388C5.71824 8.49289 5.68708 8.57104 5.68708 8.65231C5.68708 8.73358 5.71824 8.81179 5.77411 8.87081C5.83965 8.92943 5.92449 8.96184 6.01242 8.96184C6.10036 8.96184 6.18519 8.92943 6.25074 8.87081L7.04519 8.07635C7.33383 7.78609 7.49582 7.39341 7.49582 6.98406C7.49582 6.57472 7.33383 6.18204 7.04519 5.89178L5.09887 3.94546C4.75349 3.62439 4.29936 3.44592 3.82779 3.44592C3.35622 3.44592 2.90216 3.62439 2.55677 3.94546L1.28569 5.21654C0.972113 5.53575 0.768433 5.94655 0.704152 6.38937C0.639871 6.8322 0.718348 7.28399 0.928221 7.67918C3.49845 12.3851 7.37458 16.2475 12.0896 18.8009C12.3841 18.9544 12.7108 19.0361 13.0429 19.0392C13.3154 19.0438 13.586 18.9935 13.8385 18.8911C14.091 18.7887 14.3203 18.6364 14.5126 18.4434L15.7837 17.1723C15.9601 17.0112 16.1008 16.8148 16.1966 16.5958C16.2924 16.3769 16.3411 16.1402 16.3397 15.9013C16.3406 15.6682 16.2914 15.4377 16.1954 15.2252C16.0995 15.0128 15.9591 14.8234 15.7837 14.6699L13.8373 12.6839Z" fill="#45484C"/>
</svg>
